<mxfile host="app.diagrams.net" agent="Mozilla/5.0 (Macintosh; Intel Mac OS X 10_15_7) AppleWebKit/537.36 (KHTML, like Gecko) Chrome/136.0.0.0 Safari/537.36" version="27.0.3">
  <diagram name="Page-1" id="iyke_7bgeOVXvSqGCfxu">
    <mxGraphModel dx="771" dy="494" grid="1" gridSize="10" guides="1" tooltips="1" connect="1" arrows="1" fold="1" page="1" pageScale="1" pageWidth="827" pageHeight="1169" math="0" shadow="0">
      <root>
        <mxCell id="0" />
        <mxCell id="1" parent="0" />
        <mxCell id="rwvJ54KROM0EvPIWR0s5-20" value="" style="rounded=0;whiteSpace=wrap;html=1;strokeColor=none;" vertex="1" parent="1">
          <mxGeometry x="249" y="37" width="590" height="260" as="geometry" />
        </mxCell>
        <mxCell id="rwvJ54KROM0EvPIWR0s5-3" value="&lt;b&gt;Application&lt;/b&gt;" style="rounded=1;whiteSpace=wrap;html=1;fillColor=#dae8fc;strokeColor=#6c8ebf;fontColor=#0066CC;" vertex="1" parent="1">
          <mxGeometry x="280" y="195" width="120" height="60" as="geometry" />
        </mxCell>
        <mxCell id="rwvJ54KROM0EvPIWR0s5-4" value="&lt;b&gt;&lt;font color=&quot;#3399ff&quot;&gt;Cache&lt;/font&gt;&lt;/b&gt;" style="rounded=1;whiteSpace=wrap;html=1;fillColor=#DDEAFF;strokeColor=#6c8ebf;fontColor=#A9C4EB;" vertex="1" parent="1">
          <mxGeometry x="480" y="195" width="120" height="60" as="geometry" />
        </mxCell>
        <mxCell id="rwvJ54KROM0EvPIWR0s5-5" value="&lt;b&gt;Database&lt;/b&gt;" style="rounded=1;whiteSpace=wrap;html=1;fillColor=#e1d5e7;strokeColor=#9673a6;fontColor=#7241A3;" vertex="1" parent="1">
          <mxGeometry x="680" y="195" width="120" height="60" as="geometry" />
        </mxCell>
        <mxCell id="rwvJ54KROM0EvPIWR0s5-8" value="" style="endArrow=classic;html=1;rounded=0;" edge="1" parent="1">
          <mxGeometry width="50" height="50" relative="1" as="geometry">
            <mxPoint x="414" y="224.69" as="sourcePoint" />
            <mxPoint x="460" y="224.69" as="targetPoint" />
          </mxGeometry>
        </mxCell>
        <mxCell id="rwvJ54KROM0EvPIWR0s5-10" value="1. Application writes data to cache" style="text;html=1;align=center;verticalAlign=middle;whiteSpace=wrap;rounded=0;fontSize=10;fontStyle=2" vertex="1" parent="1">
          <mxGeometry x="390" y="150" width="105" height="30" as="geometry" />
        </mxCell>
        <mxCell id="rwvJ54KROM0EvPIWR0s5-12" value="&lt;b style=&quot;font-size: 16px;&quot;&gt;Cache Write Through&lt;/b&gt;" style="text;html=1;align=center;verticalAlign=middle;whiteSpace=wrap;rounded=0;fontSize=16;" vertex="1" parent="1">
          <mxGeometry x="445" y="50" width="190" height="30" as="geometry" />
        </mxCell>
        <mxCell id="rwvJ54KROM0EvPIWR0s5-14" value="" style="endArrow=classic;html=1;rounded=0;" edge="1" parent="1">
          <mxGeometry width="50" height="50" relative="1" as="geometry">
            <mxPoint x="619.5" y="224.69" as="sourcePoint" />
            <mxPoint x="665.5" y="224.69" as="targetPoint" />
          </mxGeometry>
        </mxCell>
        <mxCell id="rwvJ54KROM0EvPIWR0s5-19" value="2. Application/Cache writes data to DB" style="text;html=1;align=center;verticalAlign=middle;whiteSpace=wrap;rounded=0;fontSize=10;fontStyle=2" vertex="1" parent="1">
          <mxGeometry x="580" y="150" width="105" height="30" as="geometry" />
        </mxCell>
      </root>
    </mxGraphModel>
  </diagram>
</mxfile>
